<svg width="242" height="242" viewBox="0 0 242 242" fill="none" xmlns="http://www.w3.org/2000/svg">
<path d="M0 0H242V242H0V0Z" fill="black"/>
<path d="M166.057 170.196H174.256V178.395H166.057V170.196ZM157.857 170.196H166.057V178.395H157.857V170.196ZM149.658 170.196H157.857V178.395H149.658V170.196ZM149.658 178.395H157.857V186.595H149.658V178.395ZM157.857 178.395H166.057V186.595H157.857V178.395ZM149.658 186.595H157.857V194.794H149.658V186.595ZM141.459 186.595H149.658V194.794H141.459V186.595ZM157.857 186.595H166.057V194.794H157.857V186.595ZM141.459 194.794H149.658V202.993H141.459V194.794ZM133.259 194.794H141.459V202.993H133.259V194.794ZM125.06 194.794H133.259V202.993H125.06V194.794ZM116.861 194.794H125.06V202.993H116.861V194.794ZM108.661 194.794H116.861V202.993H108.661V194.794ZM100.462 194.794H108.661V202.993H100.462V194.794ZM92.2625 194.794H100.462V202.993H92.2625V194.794ZM92.2625 186.595H100.462V194.794H92.2625V186.595ZM84.0632 186.595H92.2625V194.794H84.0632V186.595ZM75.8638 186.595H84.0632V194.794H75.8638V186.595ZM75.8638 178.395H84.0632V186.595H75.8638V178.395ZM84.0632 178.395H92.2625V186.595H84.0632V178.395ZM92.2625 178.395H100.462V186.595H92.2625V178.395ZM100.462 178.395H108.661V186.595H100.462V178.395ZM108.661 178.395H116.861V186.595H108.661V178.395ZM116.861 178.395H125.06V186.595H116.861V178.395ZM125.06 178.395H133.259V186.595H125.06V178.395ZM133.259 178.395H141.459V186.595H133.259V178.395ZM141.459 178.395H149.658V186.595H141.459V178.395ZM133.259 186.595H141.459V194.794H133.259V186.595ZM125.06 186.595H133.259V194.794H125.06V186.595ZM116.861 186.595H125.06V194.794H116.861V186.595ZM108.661 186.595H116.861V194.794H108.661V186.595ZM100.462 186.595H108.661V194.794H100.462V186.595ZM84.0632 170.196H92.2625V178.395H84.0632V170.196ZM75.8638 170.196H84.0632V178.395H75.8638V170.196ZM67.6645 170.196H75.8638V178.395H67.6645V170.196ZM84.0632 161.997H92.2625V170.196H84.0632V161.997ZM92.2625 161.997H100.462V170.196H92.2625V161.997ZM100.462 170.196H108.661V178.395H100.462V170.196ZM92.2625 170.196H100.462V178.395H92.2625V170.196ZM75.8638 161.997H84.0632V170.196H75.8638V161.997ZM75.8638 153.797H84.0632V161.997H75.8638V153.797ZM67.6645 153.797H75.8638V161.997H67.6645V153.797ZM67.6645 145.598H75.8638V153.797H67.6645V145.598ZM67.6645 161.997H75.8638V170.196H67.6645V161.997ZM67.6645 137.399H75.8638V145.598H67.6645V137.399ZM75.8638 137.399H84.0632V145.598H75.8638V137.399ZM84.0632 137.399H92.2625V145.598H84.0632V137.399ZM92.2625 137.399H100.462V145.598H92.2625V137.399ZM92.2625 145.598H100.462V153.797H92.2625V145.598ZM92.2625 153.797H100.462V161.997H92.2625V153.797ZM84.0632 145.598H92.2625V153.797H84.0632V145.598ZM75.8638 145.598H84.0632V153.797H75.8638V145.598ZM84.0632 153.797H92.2625V161.997H84.0632V153.797ZM108.661 170.196H116.861V178.395H108.661V170.196ZM116.861 170.196H125.06V178.395H116.861V170.196ZM125.06 170.196H133.259V178.395H125.06V170.196ZM133.259 170.196H141.459V178.395H133.259V170.196ZM141.459 170.196H149.658V178.395H141.459V170.196ZM141.459 161.997H149.658V170.196H141.459V161.997ZM133.259 161.997H141.459V170.196H133.259V161.997ZM149.658 161.997H157.857V170.196H149.658V161.997ZM157.857 161.997H166.057V170.196H157.857V161.997ZM157.857 153.797H166.057V161.997H157.857V153.797ZM166.057 153.797H174.256V161.997H166.057V153.797ZM166.057 145.598H174.256V153.797H166.057V145.598ZM166.057 161.997H174.256V170.196H166.057V161.997ZM166.057 137.399H174.256V145.598H166.057V137.399ZM166.057 129.199H174.256V137.399H166.057V129.199ZM157.857 104.601H166.057V112.801H157.857V104.601ZM157.857 96.402H166.057V104.601H157.857V96.402ZM149.658 104.601H157.857V112.801H149.658V104.601ZM141.459 104.601H149.658V112.801H141.459V104.601ZM141.459 112.801H149.658V121H141.459V112.801ZM141.459 121H149.658V129.199H141.459V121ZM141.459 129.199H149.658V137.399H141.459V129.199ZM141.459 137.399H149.658V145.598H141.459V137.399ZM141.459 145.598H149.658V153.797H141.459V145.598ZM141.459 153.797H149.658V161.997H141.459V153.797ZM149.658 153.797H157.857V161.997H149.658V153.797ZM149.658 145.598H157.857V153.797H149.658V145.598ZM157.857 145.598H166.057V153.797H157.857V145.598ZM157.857 137.399H166.057V145.598H157.857V137.399ZM157.857 129.199H166.057V137.399H157.857V129.199ZM157.857 121H166.057V129.199H157.857V121ZM149.658 112.801H157.857V121H149.658V112.801ZM149.658 121H157.857V129.199H149.658V121ZM149.658 129.199H157.857V137.399H149.658V129.199ZM149.658 137.399H157.857V145.598H149.658V137.399ZM166.057 96.402H174.256V104.601H166.057V96.402ZM166.057 88.2026H174.256V96.402H166.057V88.2026ZM166.057 80.0033H174.256V88.2026H166.057V80.0033ZM166.057 71.804H174.256V80.0033H166.057V71.804ZM166.057 63.6046H174.256V71.804H166.057V63.6046ZM157.857 63.6046H166.057V71.804H157.857V63.6046ZM157.857 55.4053H166.057V63.6046H157.857V55.4053ZM157.857 47.2059H166.057V55.4053H157.857V47.2059ZM149.658 47.2059H157.857V55.4053H149.658V47.2059ZM141.459 47.2059H149.658V55.4053H141.459V47.2059ZM149.658 96.402H157.857V104.601H149.658V96.402ZM149.658 88.2026H157.857V96.402H149.658V88.2026ZM149.658 80.0033H157.857V88.2026H149.658V80.0033ZM157.857 80.0033H166.057V88.2026H157.857V80.0033ZM157.857 71.804H166.057V80.0033H157.857V71.804ZM157.857 88.2026H166.057V96.402H157.857V88.2026ZM141.459 96.402H149.658V104.601H141.459V96.402ZM141.459 88.2026H149.658V96.402H141.459V88.2026ZM149.658 71.804H157.857V80.0033H149.658V71.804ZM141.459 71.804H149.658V80.0033H141.459V71.804ZM141.459 80.0033H149.658V88.2026H141.459V80.0033ZM133.259 71.804H141.459V80.0033H133.259V71.804ZM133.259 63.6046H141.459V71.804H133.259V63.6046ZM141.459 55.4053H149.658V63.6046H141.459V55.4053ZM149.658 55.4053H157.857V63.6046H149.658V55.4053ZM149.658 63.6046H157.857V71.804H149.658V63.6046ZM141.459 63.6046H149.658V71.804H141.459V63.6046ZM133.259 55.4053H141.459V63.6046H133.259V55.4053ZM133.259 47.2059H141.459V55.4053H133.259V47.2059ZM133.259 39.0066H141.459V47.2059H133.259V39.0066ZM141.459 39.0066H149.658V47.2059H141.459V39.0066ZM125.06 39.0066H133.259V47.2059H125.06V39.0066ZM116.861 39.0066H125.06V47.2059H116.861V39.0066ZM108.661 39.0066H116.861V47.2059H108.661V39.0066ZM100.462 39.0066H108.661V47.2059H100.462V39.0066ZM100.462 47.2059H108.661V55.4053H100.462V47.2059ZM92.2625 47.2059H100.462V55.4053H92.2625V47.2059ZM92.2625 39.0066H100.462V47.2059H92.2625V39.0066ZM84.0632 47.2059H92.2625V55.4053H84.0632V47.2059ZM75.8638 47.2059H84.0632V55.4053H75.8638V47.2059ZM75.8638 55.4053H84.0632V63.6046H75.8638V55.4053ZM75.8638 63.6046H84.0632V71.804H75.8638V63.6046ZM67.6645 63.6046H75.8638V71.804H67.6645V63.6046ZM67.6645 71.804H75.8638V80.0033H67.6645V71.804ZM75.8638 71.804H84.0632V80.0033H75.8638V71.804ZM84.0632 71.804H92.2625V80.0033H84.0632V71.804ZM92.2625 71.804H100.462V80.0033H92.2625V71.804ZM100.462 63.6046H108.661V71.804H100.462V63.6046ZM108.661 63.6046H116.861V71.804H108.661V63.6046ZM116.861 63.6046H125.06V71.804H116.861V63.6046ZM125.06 63.6046H133.259V71.804H125.06V63.6046ZM125.06 47.2059H133.259V55.4053H125.06V47.2059ZM125.06 55.4053H133.259V63.6046H125.06V55.4053ZM116.861 55.4053H125.06V63.6046H116.861V55.4053ZM108.661 55.4053H116.861V63.6046H108.661V55.4053ZM116.861 47.2059H125.06V55.4053H116.861V47.2059ZM108.661 47.2059H116.861V55.4053H108.661V47.2059ZM100.462 55.4053H108.661V63.6046H100.462V55.4053ZM92.2625 55.4053H100.462V63.6046H92.2625V55.4053ZM92.2625 63.6046H100.462V71.804H92.2625V63.6046ZM84.0632 63.6046H92.2625V71.804H84.0632V63.6046ZM84.0632 55.4053H92.2625V63.6046H84.0632V55.4053ZM84.0632 80.0033H92.2625V88.2026H84.0632V80.0033ZM84.0632 88.2026H92.2625V96.402H84.0632V88.2026ZM84.0632 96.402H92.2625V104.601H84.0632V96.402ZM84.0632 104.601H92.2625V112.801H84.0632V104.601ZM92.2625 104.601H100.462V112.801H92.2625V104.601ZM92.2625 112.801H100.462V121H92.2625V112.801ZM92.2625 96.402H100.462V104.601H92.2625V96.402ZM92.2625 88.2026H100.462V96.402H92.2625V88.2026ZM92.2625 80.0033H100.462V88.2026H92.2625V80.0033ZM92.2625 121H100.462V129.199H92.2625V121ZM92.2625 129.199H100.462V137.399H92.2625V129.199ZM84.0632 129.199H92.2625V137.399H84.0632V129.199ZM75.8638 129.199H84.0632V137.399H75.8638V129.199ZM67.6645 121H75.8638V129.199H67.6645V121ZM67.6645 129.199H75.8638V137.399H67.6645V129.199ZM67.6645 112.801H75.8638V121H67.6645V112.801ZM67.6645 104.601H75.8638V112.801H67.6645V104.601ZM67.6645 96.402H75.8638V104.601H67.6645V96.402ZM67.6645 88.2026H75.8638V96.402H67.6645V88.2026ZM67.6645 80.0033H75.8638V88.2026H67.6645V80.0033ZM75.8638 88.2026H84.0632V96.402H75.8638V88.2026ZM75.8638 96.402H84.0632V104.601H75.8638V96.402ZM75.8638 104.601H84.0632V112.801H75.8638V104.601ZM75.8638 112.801H84.0632V121H75.8638V112.801ZM75.8638 121H84.0632V129.199H75.8638V121ZM84.0632 121H92.2625V129.199H84.0632V121ZM84.0632 112.801H92.2625V121H84.0632V112.801ZM75.8638 80.0033H84.0632V88.2026H75.8638V80.0033ZM84.0632 39.0066H92.2625V47.2059H84.0632V39.0066ZM75.8638 39.0066H84.0632V47.2059H75.8638V39.0066ZM67.6645 39.0066H75.8638V47.2059H67.6645V39.0066ZM67.6645 47.2059H75.8638V55.4053H67.6645V47.2059ZM67.6645 55.4053H75.8638V63.6046H67.6645V55.4053ZM67.6645 178.395H75.8638V186.595H67.6645V178.395ZM67.6645 186.595H75.8638V194.794H67.6645V186.595ZM67.6645 194.794H75.8638V202.993H67.6645V194.794ZM75.8638 194.794H84.0632V202.993H75.8638V194.794ZM84.0632 194.794H92.2625V202.993H84.0632V194.794ZM100.462 121H108.661V129.199H100.462V121ZM100.462 112.801H108.661V121H100.462V112.801ZM100.462 104.601H108.661V112.801H100.462V104.601ZM100.462 129.199H108.661V137.399H100.462V129.199ZM108.661 129.199H116.861V137.399H108.661V129.199ZM116.861 129.199H125.06V137.399H116.861V129.199ZM125.06 129.199H133.259V137.399H125.06V129.199ZM133.259 129.199H141.459V137.399H133.259V129.199ZM133.259 121H141.459V129.199H133.259V121ZM133.259 112.801H141.459V121H133.259V112.801ZM133.259 104.601H141.459V112.801H133.259V104.601ZM125.06 104.601H133.259V112.801H125.06V104.601ZM116.861 104.601H125.06V112.801H116.861V104.601ZM108.661 104.601H116.861V112.801H108.661V104.601ZM108.661 112.801H116.861V121H108.661V112.801ZM108.661 121H116.861V129.199H108.661V121ZM116.861 121H125.06V129.199H116.861V121ZM125.06 121H133.259V129.199H125.06V121ZM125.06 112.801H133.259V121H125.06V112.801ZM116.861 112.801H125.06V121H116.861V112.801ZM133.259 96.402H141.459V104.601H133.259V96.402ZM133.259 137.399H141.459V145.598H133.259V137.399Z" fill="white"/>
</svg>
